<svg width="25" height="24" viewBox="0 0 25 24" fill="none" xmlns="http://www.w3.org/2000/svg">
<path d="M12.5 23.4688L10.6875 21.8438C8.58333 19.9479 6.84375 18.3125 5.46875 16.9375C4.09375 15.5625 3 14.3279 2.1875 13.2338C1.375 12.1404 0.8075 11.1354 0.485 10.2187C0.1625 9.30208 0.000833333 8.36458 0 7.40625C0 5.44792 0.65625 3.8125 1.96875 2.5C3.28125 1.1875 4.91667 0.53125 6.875 0.53125C7.95833 0.53125 8.98958 0.760417 9.96875 1.21875C10.9479 1.67708 11.7917 2.32292 12.5 3.15625C13.2083 2.32292 14.0521 1.67708 15.0312 1.21875C16.0104 0.760417 17.0417 0.53125 18.125 0.53125C20.0833 0.53125 21.7188 1.1875 23.0312 2.5C24.3437 3.8125 25 5.44792 25 7.40625C25 8.36458 24.8388 9.30208 24.5163 10.2187C24.1938 11.1354 23.6258 12.1404 22.8125 13.2338C22 14.3279 20.9062 15.5625 19.5312 16.9375C18.1562 18.3125 16.4167 19.9479 14.3125 21.8438L12.5 23.4688Z" fill="#575757"/>
</svg>
