<svg width="25" height="26" viewBox="0 0 25 26" fill="none" xmlns="http://www.w3.org/2000/svg">
<path d="M13.0417 0.700055C12.8907 0.570947 12.6986 0.5 12.5 0.5C12.3014 0.5 12.1093 0.570947 11.9583 0.700055L0 10.9501V23.0001C0 23.6631 0.263392 24.299 0.732233 24.7678C1.20107 25.2367 1.83696 25.5001 2.5 25.5001H9.16667C9.38768 25.5001 9.59964 25.4123 9.75592 25.256C9.9122 25.0997 10 24.8877 10 24.6667V19.6667C10 19.0037 10.2634 18.3678 10.7322 17.899C11.2011 17.4301 11.837 17.1667 12.5 17.1667C13.163 17.1667 13.7989 17.4301 14.2678 17.899C14.7366 18.3678 15 19.0037 15 19.6667V24.6667C15 24.8877 15.0878 25.0997 15.2441 25.256C15.4004 25.4123 15.6123 25.5001 15.8333 25.5001H22.5C23.163 25.5001 23.7989 25.2367 24.2678 24.7678C24.7366 24.299 25 23.6631 25 23.0001V10.9501L13.0417 0.700055Z" fill="url(#paint0_linear_452_1552)"/>
<defs>
<linearGradient id="paint0_linear_452_1552" x1="12.5" y1="0.5" x2="12.5" y2="25.5001" gradientUnits="userSpaceOnUse">
<stop stop-color="#095269"/>
<stop offset="1" stop-color="#1B9EDC"/>
</linearGradient>
</defs>
</svg>
